<svg width="16" height="15" viewBox="0 0 16 15" fill="none" xmlns="http://www.w3.org/2000/svg">
<rect width="16" height="15" fill="#1E1E1E"/>
<rect width="1440" height="1532" transform="translate(-67 -34)" fill="#F6F8FA"/>
<rect width="140" height="992" transform="translate(-67 -32)" fill="white"/>
<rect x="-37" y="-16" width="90" height="70" rx="8" fill="white"/>
<g clip-path="url(#clip0_0_1)">
<path d="M13.8333 1.66667V3.33333H10.5V1.66667H13.8333ZM5.5 1.66667V6.66667H2.16667V1.66667H5.5ZM13.8333 8.33333V13.3333H10.5V8.33333H13.8333ZM5.5 11.6667V13.3333H2.16667V11.6667H5.5ZM15.5 0H8.83333V5H15.5V0ZM7.16667 0H0.5V8.33333H7.16667V0ZM15.5 6.66667H8.83333V15H15.5V6.66667ZM7.16667 10H0.5V15H7.16667V10Z" fill="#1C4980"/>
</g>
<defs>
<clipPath id="clip0_0_1">
<rect width="20" height="20" fill="white" transform="translate(-2 -2.5)"/>
</clipPath>
</defs>
</svg>
